<mxfile host="app.diagrams.net" modified="2023-06-30T13:14:52.572Z" agent="Mozilla/5.0 (Windows NT 10.0; Win64; x64; rv:109.0) Gecko/20100101 Firefox/114.0" etag="kPJeBgUlvZhSFeClJC5s" version="21.5.1" type="github">
  <diagram name="Page-1" id="GvbQdxfOCJasP_Gx__lI">
    <mxGraphModel dx="1825" dy="653" grid="1" gridSize="10" guides="1" tooltips="1" connect="1" arrows="1" fold="1" page="1" pageScale="1" pageWidth="850" pageHeight="1100" math="0" shadow="0">
      <root>
        <mxCell id="0" />
        <mxCell id="1" parent="0" />
        <mxCell id="k9Zrb_aVxgpPgxSppSjg-19" value="" style="rounded=1;whiteSpace=wrap;html=1;" vertex="1" parent="1">
          <mxGeometry x="340" y="310" width="260" height="400" as="geometry" />
        </mxCell>
        <mxCell id="k9Zrb_aVxgpPgxSppSjg-16" value="" style="rounded=1;whiteSpace=wrap;html=1;" vertex="1" parent="1">
          <mxGeometry x="102.5" y="350" width="377.5" height="320" as="geometry" />
        </mxCell>
        <mxCell id="k9Zrb_aVxgpPgxSppSjg-9" value="" style="rounded=1;whiteSpace=wrap;html=1;" vertex="1" parent="1">
          <mxGeometry x="110" y="350" width="220" height="310" as="geometry" />
        </mxCell>
        <mxCell id="k9Zrb_aVxgpPgxSppSjg-1" value="" style="rounded=1;whiteSpace=wrap;html=1;" vertex="1" parent="1">
          <mxGeometry x="120" y="360" width="90" height="290" as="geometry" />
        </mxCell>
        <mxCell id="k9Zrb_aVxgpPgxSppSjg-2" value="E0:" style="text;html=1;strokeColor=none;fillColor=none;align=center;verticalAlign=middle;whiteSpace=wrap;rounded=0;" vertex="1" parent="1">
          <mxGeometry x="135" y="360" width="60" height="30" as="geometry" />
        </mxCell>
        <mxCell id="k9Zrb_aVxgpPgxSppSjg-3" value="Ground Truth" style="text;html=1;strokeColor=none;fillColor=none;align=center;verticalAlign=middle;whiteSpace=wrap;rounded=0;" vertex="1" parent="1">
          <mxGeometry x="135" y="390" width="60" height="30" as="geometry" />
        </mxCell>
        <mxCell id="k9Zrb_aVxgpPgxSppSjg-4" value="" style="endArrow=none;dashed=1;html=1;dashPattern=1 3;strokeWidth=2;rounded=0;exitX=0;exitY=0.25;exitDx=0;exitDy=0;entryX=1.006;entryY=0.266;entryDx=0;entryDy=0;entryPerimeter=0;" edge="1" parent="1" source="k9Zrb_aVxgpPgxSppSjg-1" target="k9Zrb_aVxgpPgxSppSjg-16">
          <mxGeometry width="50" height="50" relative="1" as="geometry">
            <mxPoint x="400" y="600" as="sourcePoint" />
            <mxPoint x="450" y="550" as="targetPoint" />
          </mxGeometry>
        </mxCell>
        <mxCell id="k9Zrb_aVxgpPgxSppSjg-5" value="Camera" style="text;html=1;strokeColor=none;fillColor=none;align=center;verticalAlign=middle;whiteSpace=wrap;rounded=0;" vertex="1" parent="1">
          <mxGeometry x="135" y="440" width="60" height="30" as="geometry" />
        </mxCell>
        <mxCell id="k9Zrb_aVxgpPgxSppSjg-6" value="Internal Understanding of world (general)" style="text;html=1;strokeColor=none;fillColor=none;align=center;verticalAlign=middle;whiteSpace=wrap;rounded=0;" vertex="1" parent="1">
          <mxGeometry x="132.5" y="470" width="65" height="60" as="geometry" />
        </mxCell>
        <mxCell id="k9Zrb_aVxgpPgxSppSjg-7" value="Battery Life" style="text;html=1;strokeColor=none;fillColor=none;align=center;verticalAlign=middle;whiteSpace=wrap;rounded=0;" vertex="1" parent="1">
          <mxGeometry x="135" y="540" width="60" height="30" as="geometry" />
        </mxCell>
        <mxCell id="k9Zrb_aVxgpPgxSppSjg-8" value="Direction / Pitch" style="text;html=1;strokeColor=none;fillColor=none;align=center;verticalAlign=middle;whiteSpace=wrap;rounded=0;" vertex="1" parent="1">
          <mxGeometry x="132.5" y="580" width="60" height="30" as="geometry" />
        </mxCell>
        <mxCell id="k9Zrb_aVxgpPgxSppSjg-10" value="E1:" style="text;html=1;strokeColor=none;fillColor=none;align=center;verticalAlign=middle;whiteSpace=wrap;rounded=0;" vertex="1" parent="1">
          <mxGeometry x="230" y="360" width="60" height="30" as="geometry" />
        </mxCell>
        <mxCell id="k9Zrb_aVxgpPgxSppSjg-11" value="&lt;div&gt;Output&lt;/div&gt;&lt;div&gt;Data&lt;br&gt;&lt;/div&gt;" style="text;html=1;strokeColor=none;fillColor=none;align=center;verticalAlign=middle;whiteSpace=wrap;rounded=0;" vertex="1" parent="1">
          <mxGeometry x="230" y="390" width="60" height="30" as="geometry" />
        </mxCell>
        <mxCell id="k9Zrb_aVxgpPgxSppSjg-12" value="Collision Detection" style="text;html=1;strokeColor=none;fillColor=none;align=center;verticalAlign=middle;whiteSpace=wrap;rounded=0;" vertex="1" parent="1">
          <mxGeometry x="230" y="450" width="60" height="30" as="geometry" />
        </mxCell>
        <mxCell id="k9Zrb_aVxgpPgxSppSjg-13" value="Binary Risk Classification" style="text;html=1;strokeColor=none;fillColor=none;align=center;verticalAlign=middle;whiteSpace=wrap;rounded=0;" vertex="1" parent="1">
          <mxGeometry x="215" y="500" width="90" height="40" as="geometry" />
        </mxCell>
        <mxCell id="k9Zrb_aVxgpPgxSppSjg-14" value="Distance Estimation" style="text;html=1;strokeColor=none;fillColor=none;align=center;verticalAlign=middle;whiteSpace=wrap;rounded=0;" vertex="1" parent="1">
          <mxGeometry x="370" y="450" width="60" height="30" as="geometry" />
        </mxCell>
        <mxCell id="k9Zrb_aVxgpPgxSppSjg-15" value="Pathfinding" style="text;html=1;strokeColor=none;fillColor=none;align=center;verticalAlign=middle;whiteSpace=wrap;rounded=0;" vertex="1" parent="1">
          <mxGeometry x="230" y="550" width="60" height="30" as="geometry" />
        </mxCell>
        <mxCell id="k9Zrb_aVxgpPgxSppSjg-17" value="E2" style="text;html=1;strokeColor=none;fillColor=none;align=center;verticalAlign=middle;whiteSpace=wrap;rounded=0;" vertex="1" parent="1">
          <mxGeometry x="365" y="360" width="60" height="30" as="geometry" />
        </mxCell>
        <mxCell id="k9Zrb_aVxgpPgxSppSjg-18" value="Input Data" style="text;html=1;strokeColor=none;fillColor=none;align=center;verticalAlign=middle;whiteSpace=wrap;rounded=0;" vertex="1" parent="1">
          <mxGeometry x="365" y="390" width="60" height="30" as="geometry" />
        </mxCell>
        <mxCell id="k9Zrb_aVxgpPgxSppSjg-20" value="" style="endArrow=none;dashed=1;html=1;dashPattern=1 3;strokeWidth=2;rounded=0;entryX=0.63;entryY=-0.001;entryDx=0;entryDy=0;entryPerimeter=0;exitX=0.631;exitY=0.999;exitDx=0;exitDy=0;exitPerimeter=0;" edge="1" parent="1" source="k9Zrb_aVxgpPgxSppSjg-16" target="k9Zrb_aVxgpPgxSppSjg-16">
          <mxGeometry width="50" height="50" relative="1" as="geometry">
            <mxPoint x="370" y="570" as="sourcePoint" />
            <mxPoint x="420" y="520" as="targetPoint" />
          </mxGeometry>
        </mxCell>
        <mxCell id="k9Zrb_aVxgpPgxSppSjg-21" value="E3" style="text;html=1;strokeColor=none;fillColor=none;align=center;verticalAlign=middle;whiteSpace=wrap;rounded=0;" vertex="1" parent="1">
          <mxGeometry x="510" y="360" width="60" height="30" as="geometry" />
        </mxCell>
        <mxCell id="k9Zrb_aVxgpPgxSppSjg-22" value="Training Data" style="text;html=1;strokeColor=none;fillColor=none;align=center;verticalAlign=middle;whiteSpace=wrap;rounded=0;" vertex="1" parent="1">
          <mxGeometry x="510" y="390" width="60" height="30" as="geometry" />
        </mxCell>
        <mxCell id="k9Zrb_aVxgpPgxSppSjg-23" value="Environment Quality" style="text;html=1;strokeColor=none;fillColor=none;align=center;verticalAlign=middle;whiteSpace=wrap;rounded=0;" vertex="1" parent="1">
          <mxGeometry x="370" y="500" width="60" height="30" as="geometry" />
        </mxCell>
        <mxCell id="k9Zrb_aVxgpPgxSppSjg-24" value="LiDar" style="text;html=1;strokeColor=none;fillColor=none;align=center;verticalAlign=middle;whiteSpace=wrap;rounded=0;" vertex="1" parent="1">
          <mxGeometry x="365" y="550" width="60" height="30" as="geometry" />
        </mxCell>
        <mxCell id="k9Zrb_aVxgpPgxSppSjg-25" value="Landing Position" style="text;html=1;strokeColor=none;fillColor=none;align=center;verticalAlign=middle;whiteSpace=wrap;rounded=0;" vertex="1" parent="1">
          <mxGeometry x="365" y="590" width="60" height="30" as="geometry" />
        </mxCell>
        <mxCell id="k9Zrb_aVxgpPgxSppSjg-26" value="Contextual Data" style="text;html=1;strokeColor=none;fillColor=none;align=center;verticalAlign=middle;whiteSpace=wrap;rounded=0;" vertex="1" parent="1">
          <mxGeometry x="510" y="450" width="60" height="30" as="geometry" />
        </mxCell>
        <mxCell id="k9Zrb_aVxgpPgxSppSjg-27" value="Previous Decision Tree" style="text;html=1;strokeColor=none;fillColor=none;align=center;verticalAlign=middle;whiteSpace=wrap;rounded=0;" vertex="1" parent="1">
          <mxGeometry x="510" y="500" width="60" height="30" as="geometry" />
        </mxCell>
        <mxCell id="k9Zrb_aVxgpPgxSppSjg-28" value="Dataset Validation" style="text;html=1;strokeColor=none;fillColor=none;align=center;verticalAlign=middle;whiteSpace=wrap;rounded=0;" vertex="1" parent="1">
          <mxGeometry x="510" y="560" width="60" height="30" as="geometry" />
        </mxCell>
        <mxCell id="k9Zrb_aVxgpPgxSppSjg-29" value="ML Weight Set" style="text;html=1;strokeColor=none;fillColor=none;align=center;verticalAlign=middle;whiteSpace=wrap;rounded=0;" vertex="1" parent="1">
          <mxGeometry x="510" y="610" width="60" height="30" as="geometry" />
        </mxCell>
      </root>
    </mxGraphModel>
  </diagram>
</mxfile>
